<svg width="18" height="18" viewBox="0 0 18 18" fill="none" xmlns="http://www.w3.org/2000/svg">
      <circle cx="9" cy="9" r="8.5" fill="#C10725" stroke="#C10725"/>
      <path d="M8.00367 9.496C8.00367 9.916 8.14767 10.276 8.39967 10.552L9.70767 10.168C9.58767 10.06 9.49167 9.856 9.49167 9.664C9.49167 9.22 9.86367 8.956 10.2837 8.644C10.8597 8.248 11.4957 7.768 11.4957 6.772C11.4957 5.656 10.5477 4.876 8.99967 4.876C7.96767 4.876 7.00767 5.296 6.37167 6.04L7.34367 7.132C7.71567 6.688 8.21967 6.388 8.81967 6.388C9.47967 6.388 9.75567 6.7 9.75567 7.072C9.75567 7.432 9.43167 7.66 9.05967 7.924C8.57967 8.272 8.00367 8.668 8.00367 9.496ZM8.00367 12.16C8.00367 12.688 8.44767 13.132 8.97567 13.132C9.50367 13.132 9.94767 12.688 9.94767 12.16C9.94767 11.632 9.50367 11.188 8.97567 11.188C8.44767 11.188 8.00367 11.632 8.00367 12.16Z" fill="white"/>
</svg>